<?xml version="1.0" standalone="no"?><!-- Generator: Gravit.io --><svg xmlns="http://www.w3.org/2000/svg" xmlns:xlink="http://www.w3.org/1999/xlink" style="isolation:isolate" viewBox="0 0 1080 1080" width="1080" height="1080"><defs><clipPath id="_clipPath_hkQvdcIYZu8pLZxuWuImBwVh0It4sPbf"><rect width="1080" height="1080"/></clipPath></defs><g clip-path="url(#_clipPath_hkQvdcIYZu8pLZxuWuImBwVh0It4sPbf)"><rect width="1080" height="1080" style="fill:rgb(0,0,0)"/><rect x="0" y="0" width="1080" height="1080" transform="matrix(1,0,0,1,0,0)" fill="rgb(255,255,255)"/><g id="Group"><path d=" M -2159 913.748 L -2175 850.748 L -1993 902.748 L -2159 913.748 Z " fill="rgb(79,79,255)"/><path d=" M -2093.816 846.748 L -2124 727.898 L -1780.657 825.996 L -2093.816 846.748 Z " fill="rgb(79,79,255)"/><line x1="-2232" y1="986.434" x2="-2039" y2="529.748" vector-effect="non-scaling-stroke" stroke-width="5" stroke="rgb(255,97,97)" stroke-linejoin="miter" stroke-linecap="square" stroke-miterlimit="3"/><line x1="-2232" y1="986.434" x2="-1779.95" y2="825.748" vector-effect="non-scaling-stroke" stroke-width="5" stroke="rgb(255,97,97)" stroke-linejoin="miter" stroke-linecap="square" stroke-miterlimit="3"/><line x1="-2232" y1="986.434" x2="-1779.95" y2="529.748" vector-effect="non-scaling-stroke" stroke-width="5" stroke="rgb(255,97,97)" stroke-linejoin="miter" stroke-linecap="square" stroke-miterlimit="3"/><line x1="-2236" y1="529.748" x2="-2236" y2="1453.748" vector-effect="non-scaling-stroke" stroke-width="10" stroke="rgb(0,0,0)" stroke-linejoin="miter" stroke-linecap="square" stroke-miterlimit="3"/><line x1="-2698" y1="991.748" x2="-1774" y2="991.748" vector-effect="non-scaling-stroke" stroke-width="10" stroke="rgb(0,0,0)" stroke-linejoin="miter" stroke-linecap="square" stroke-miterlimit="3"/><path d=" M -2246.96 537.405 L -2235.646 526.091 L -2225.04 536.697" fill="none" vector-effect="non-scaling-stroke" stroke-width="10" stroke="rgb(0,0,0)" stroke-linejoin="miter" stroke-linecap="square" stroke-miterlimit="3"/><path d=" M -1780.657 980.788 L -1769.343 992.101 L -1779.95 1002.708" fill="none" vector-effect="non-scaling-stroke" stroke-width="10" stroke="rgb(0,0,0)" stroke-linejoin="miter" stroke-linecap="square" stroke-miterlimit="3"/><g transform="matrix(1,0,0,1,-1779.343,961.748)"><text transform="matrix(1,0,0,1,18.825,49.397)" style="font-family:&quot;Open Sans&quot;;font-weight:700;font-size:50px;font-style:normal;fill:#000000;stroke:none;">X</text></g><g transform="matrix(1,0,0,1,-2272.5,458)"><text transform="matrix(1,0,0,1,19.899,53.442)" style="font-family:&quot;Open Sans&quot;;font-weight:700;font-size:50px;font-style:normal;fill:#000000;stroke:none;">Y</text></g></g><g id="Group"><line x1="149.817" y1="927.164" x2="308.257" y2="141.538" vector-effect="non-scaling-stroke" stroke-width="8.082" stroke="rgb(255,46,46)" stroke-linejoin="miter" stroke-linecap="square" stroke-miterlimit="3"/><line x1="149.817" y1="927.164" x2="1040" y2="394.381" vector-effect="non-scaling-stroke" stroke-width="8.082" stroke="rgb(255,46,46)" stroke-linejoin="miter" stroke-linecap="square" stroke-miterlimit="3"/><line x1="149.817" y1="927.164" x2="718.592" y2="58" vector-effect="non-scaling-stroke" stroke-width="8.082" stroke="rgb(255,46,46)" stroke-linejoin="miter" stroke-linecap="square" stroke-miterlimit="3"/><path d=" M 242.009 788.489 L 196.349 693.857 L 501.405 717.534 L 242.009 788.489 Z " fill="rgb(79,188,255)"/><path d=" M 360.094 608.606 L 256.73 394.381 L 947.304 447.981 L 360.094 608.606 Z " fill="rgb(79,188,255)"/><line x1="137.817" y1="191.979" x2="137.817" y2="1004" vector-effect="non-scaling-stroke" stroke-width="16.165" stroke="rgb(0,0,0)" stroke-linejoin="miter" stroke-linecap="square" stroke-miterlimit="3"/><line x1="76" y1="938.796" x2="884.634" y2="938.796" vector-effect="non-scaling-stroke" stroke-width="16.165" stroke="rgb(0,0,0)" stroke-linejoin="miter" stroke-linecap="square" stroke-miterlimit="3"/><path d=" M 120.1 204.356 L 138.389 186.068 L 155.534 203.213" fill="none" vector-effect="non-scaling-stroke" stroke-width="16.165" stroke="rgb(0,0,0)" stroke-linejoin="miter" stroke-linecap="square" stroke-miterlimit="3"/><path d=" M 873.873 921.079 L 892.162 939.368 L 875.016 956.513" fill="none" vector-effect="non-scaling-stroke" stroke-width="16.165" stroke="rgb(0,0,0)" stroke-linejoin="miter" stroke-linecap="square" stroke-miterlimit="3"/><g transform="matrix(1.616,0,0,1.616,875.997,890.302)"><text transform="matrix(1,0,0,1,18.825,53.442)" style="font-family:&quot;Open Sans&quot;;font-weight:700;font-size:50px;font-style:normal;fill:#000000;stroke:none;">X</text></g><g transform="matrix(1.616,0,0,1.616,78.815,76)"><text transform="matrix(1,0,0,1,19.899,53.442)" style="font-family:&quot;Open Sans&quot;;font-weight:700;font-size:50px;font-style:normal;fill:#000000;stroke:none;">Y</text></g></g></g></svg>