<?xml version="1.0" standalone="no"?><!-- Generator: Gravit.io --><svg xmlns="http://www.w3.org/2000/svg" xmlns:xlink="http://www.w3.org/1999/xlink" style="isolation:isolate" viewBox="0 0 1080 1080" width="1080" height="1080"><defs><clipPath id="_clipPath_HBq14WEs5bTFP1XkStdznF6cwTiFOht3"><rect width="1080" height="1080"/></clipPath></defs><g clip-path="url(#_clipPath_HBq14WEs5bTFP1XkStdznF6cwTiFOht3)"><rect width="1080" height="1080" style="fill:rgb(0,0,0)"/><rect x="0" y="0" width="1080" height="1080" transform="matrix(1,0,0,1,0,0)" fill="rgb(255,255,255)"/><g id="Group"><path d=" M -2159 913.748 L -2175 850.748 L -1993 902.748 L -2159 913.748 Z " fill="rgb(79,79,255)"/><path d=" M -2093.816 846.748 L -2124 727.898 L -1780.657 825.996 L -2093.816 846.748 Z " fill="rgb(79,79,255)"/><line x1="-2232" y1="986.434" x2="-2039" y2="529.748" vector-effect="non-scaling-stroke" stroke-width="5" stroke="rgb(255,97,97)" stroke-linejoin="miter" stroke-linecap="square" stroke-miterlimit="3"/><line x1="-2232" y1="986.434" x2="-1779.95" y2="825.748" vector-effect="non-scaling-stroke" stroke-width="5" stroke="rgb(255,97,97)" stroke-linejoin="miter" stroke-linecap="square" stroke-miterlimit="3"/><line x1="-2232" y1="986.434" x2="-1779.95" y2="529.748" vector-effect="non-scaling-stroke" stroke-width="5" stroke="rgb(255,97,97)" stroke-linejoin="miter" stroke-linecap="square" stroke-miterlimit="3"/><line x1="-2236" y1="529.748" x2="-2236" y2="1453.748" vector-effect="non-scaling-stroke" stroke-width="10" stroke="rgb(0,0,0)" stroke-linejoin="miter" stroke-linecap="square" stroke-miterlimit="3"/><line x1="-2698" y1="991.748" x2="-1774" y2="991.748" vector-effect="non-scaling-stroke" stroke-width="10" stroke="rgb(0,0,0)" stroke-linejoin="miter" stroke-linecap="square" stroke-miterlimit="3"/><path d=" M -2246.96 537.405 L -2235.646 526.091 L -2225.04 536.697" fill="none" vector-effect="non-scaling-stroke" stroke-width="10" stroke="rgb(0,0,0)" stroke-linejoin="miter" stroke-linecap="square" stroke-miterlimit="3"/><path d=" M -1780.657 980.788 L -1769.343 992.101 L -1779.95 1002.708" fill="none" vector-effect="non-scaling-stroke" stroke-width="10" stroke="rgb(0,0,0)" stroke-linejoin="miter" stroke-linecap="square" stroke-miterlimit="3"/><g transform="matrix(1,0,0,1,-1779.343,961.748)"><text transform="matrix(1,0,0,1,18.825,49.397)" style="font-family:&quot;Open Sans&quot;;font-weight:700;font-size:50px;font-style:normal;fill:#000000;stroke:none;">X</text></g><g transform="matrix(1,0,0,1,-2272.5,458)"><text transform="matrix(1,0,0,1,19.899,53.442)" style="font-family:&quot;Open Sans&quot;;font-weight:700;font-size:50px;font-style:normal;fill:#000000;stroke:none;">Y</text></g></g><g id="Group"><line x1="1887.817" y1="893.164" x2="2046.257" y2="107.538" vector-effect="non-scaling-stroke" stroke-width="8.082" stroke="rgb(255,46,46)" stroke-linejoin="miter" stroke-linecap="square" stroke-miterlimit="3"/><line x1="1887.817" y1="893.164" x2="2778" y2="360.381" vector-effect="non-scaling-stroke" stroke-width="8.082" stroke="rgb(255,46,46)" stroke-linejoin="miter" stroke-linecap="square" stroke-miterlimit="3"/><line x1="1887.817" y1="893.164" x2="2456.592" y2="24" vector-effect="non-scaling-stroke" stroke-width="8.082" stroke="rgb(255,46,46)" stroke-linejoin="miter" stroke-linecap="square" stroke-miterlimit="3"/><path d=" M 1980.009 754.489 L 1934.349 659.857 L 2239.405 683.534 L 1980.009 754.489 Z " fill="rgb(79,188,255)"/><path d=" M 2098.094 574.606 L 1994.73 360.381 L 2685.304 413.981 L 2098.094 574.606 Z " fill="rgb(79,188,255)"/><line x1="1875.817" y1="157.979" x2="1875.817" y2="970" vector-effect="non-scaling-stroke" stroke-width="16.165" stroke="rgb(0,0,0)" stroke-linejoin="miter" stroke-linecap="square" stroke-miterlimit="3"/><line x1="1814" y1="904.796" x2="2622.634" y2="904.796" vector-effect="non-scaling-stroke" stroke-width="16.165" stroke="rgb(0,0,0)" stroke-linejoin="miter" stroke-linecap="square" stroke-miterlimit="3"/><path d=" M 1858.1 170.356 L 1876.389 152.068 L 1893.534 169.213" fill="none" vector-effect="non-scaling-stroke" stroke-width="16.165" stroke="rgb(0,0,0)" stroke-linejoin="miter" stroke-linecap="square" stroke-miterlimit="3"/><path d=" M 2611.873 887.079 L 2630.162 905.368 L 2613.016 922.513" fill="none" vector-effect="non-scaling-stroke" stroke-width="16.165" stroke="rgb(0,0,0)" stroke-linejoin="miter" stroke-linecap="square" stroke-miterlimit="3"/><g transform="matrix(1.616,0,0,1.616,2613.997,856.302)"><text transform="matrix(1,0,0,1,18.825,53.442)" style="font-family:&quot;Open Sans&quot;;font-weight:700;font-size:50px;font-style:normal;fill:#000000;stroke:none;">X</text></g><g transform="matrix(1.616,0,0,1.616,1816.815,42)"><text transform="matrix(1,0,0,1,19.899,53.442)" style="font-family:&quot;Open Sans&quot;;font-weight:700;font-size:50px;font-style:normal;fill:#000000;stroke:none;">Y</text></g></g><g id="Group"><g id="Group"><path d=" M 594.464 568.556 L 798.272 318 L 891.179 856.757 L 594.464 568.556 Z " fill="rgb(79,188,255)"/><path d=" M 485.536 568.556 L 281.728 318 L 188.821 856.757 L 485.536 568.556 Z " fill="rgb(79,188,255)"/></g><line x1="540" y1="172.979" x2="540" y2="985" vector-effect="non-scaling-stroke" stroke-width="16.165" stroke="rgb(0,0,0)" stroke-linejoin="miter" stroke-linecap="square" stroke-miterlimit="3"/><line x1="163" y1="920.368" x2="917" y2="919.796" vector-effect="non-scaling-stroke" stroke-width="16.165" stroke="rgb(0,0,0)" stroke-linejoin="miter" stroke-linecap="square" stroke-miterlimit="3"/><path d=" M 522.283 185.356 L 540.572 167.068 L 557.717 184.213" fill="none" vector-effect="non-scaling-stroke" stroke-width="16.165" stroke="rgb(0,0,0)" stroke-linejoin="miter" stroke-linecap="square" stroke-miterlimit="3"/><path d=" M 905.873 902.079 L 924.162 920.368 L 907.016 937.513" fill="none" vector-effect="non-scaling-stroke" stroke-width="16.165" stroke="rgb(0,0,0)" stroke-linejoin="miter" stroke-linecap="square" stroke-miterlimit="3"/><g transform="matrix(1.616,0,0,1.616,912.997,871.302)"><text transform="matrix(1,0,0,1,18.825,53.442)" style="font-family:&quot;Open Sans&quot;;font-weight:700;font-size:50px;font-style:normal;fill:#000000;stroke:none;">X</text></g><g transform="matrix(1.616,0,0,1.616,480.998,57)"><text transform="matrix(1,0,0,1,19.899,53.442)" style="font-family:&quot;Open Sans&quot;;font-weight:700;font-size:50px;font-style:normal;fill:#000000;stroke:none;">Y</text></g><line x1="282" y1="320" x2="798" y2="320" vector-effect="non-scaling-stroke" stroke-width="4" stroke="rgb(255,46,46)" stroke-linejoin="miter" stroke-linecap="square" stroke-miterlimit="3"/><line x1="485" y1="569" x2="595" y2="569" vector-effect="non-scaling-stroke" stroke-width="4" stroke="rgb(255,46,46)" stroke-linejoin="miter" stroke-linecap="square" stroke-miterlimit="3"/><line x1="188" y1="857" x2="891" y2="857" vector-effect="non-scaling-stroke" stroke-width="4" stroke="rgb(255,46,46)" stroke-linejoin="miter" stroke-linecap="square" stroke-miterlimit="3"/></g></g></svg>