<?xml version="1.0" standalone="no"?><!-- Generator: Gravit.io --><svg xmlns="http://www.w3.org/2000/svg" xmlns:xlink="http://www.w3.org/1999/xlink" style="isolation:isolate" viewBox="0 0 1500 1080" width="1500" height="1080"><defs><clipPath id="_clipPath_VabiYWEvxah7do7z33nXeEC70UXefKYW"><rect width="1500" height="1080"/></clipPath></defs><g clip-path="url(#_clipPath_VabiYWEvxah7do7z33nXeEC70UXefKYW)"><rect width="1500" height="1080" style="fill:rgb(0,0,0)"/><rect x="0" y="0" width="1500" height="1080" transform="matrix(1,0,0,1,0,0)" fill="rgb(255,255,255)"/><g id="Group"><path d=" M -2159 913.748 L -2175 850.748 L -1993 902.748 L -2159 913.748 Z " fill="rgb(79,79,255)"/><path d=" M -2093.816 846.748 L -2124 727.898 L -1780.657 825.996 L -2093.816 846.748 Z " fill="rgb(79,79,255)"/><line x1="-2232" y1="986.434" x2="-2039" y2="529.748" vector-effect="non-scaling-stroke" stroke-width="5" stroke="rgb(255,97,97)" stroke-linejoin="miter" stroke-linecap="square" stroke-miterlimit="3"/><line x1="-2232" y1="986.434" x2="-1779.95" y2="825.748" vector-effect="non-scaling-stroke" stroke-width="5" stroke="rgb(255,97,97)" stroke-linejoin="miter" stroke-linecap="square" stroke-miterlimit="3"/><line x1="-2232" y1="986.434" x2="-1779.95" y2="529.748" vector-effect="non-scaling-stroke" stroke-width="5" stroke="rgb(255,97,97)" stroke-linejoin="miter" stroke-linecap="square" stroke-miterlimit="3"/><line x1="-2236" y1="529.748" x2="-2236" y2="1453.748" vector-effect="non-scaling-stroke" stroke-width="10" stroke="rgb(0,0,0)" stroke-linejoin="miter" stroke-linecap="square" stroke-miterlimit="3"/><line x1="-2698" y1="991.748" x2="-1774" y2="991.748" vector-effect="non-scaling-stroke" stroke-width="10" stroke="rgb(0,0,0)" stroke-linejoin="miter" stroke-linecap="square" stroke-miterlimit="3"/><path d=" M -2246.96 537.405 L -2235.646 526.091 L -2225.04 536.697" fill="none" vector-effect="non-scaling-stroke" stroke-width="10" stroke="rgb(0,0,0)" stroke-linejoin="miter" stroke-linecap="square" stroke-miterlimit="3"/><path d=" M -1780.657 980.788 L -1769.343 992.101 L -1779.95 1002.708" fill="none" vector-effect="non-scaling-stroke" stroke-width="10" stroke="rgb(0,0,0)" stroke-linejoin="miter" stroke-linecap="square" stroke-miterlimit="3"/><g transform="matrix(1,0,0,1,-1779.343,961.748)"><text transform="matrix(1,0,0,1,18.825,49.397)" style="font-family:&quot;Open Sans&quot;;font-weight:700;font-size:50px;font-style:normal;fill:#000000;stroke:none;">X</text></g><g transform="matrix(1,0,0,1,-2272.5,458)"><text transform="matrix(1,0,0,1,19.899,53.442)" style="font-family:&quot;Open Sans&quot;;font-weight:700;font-size:50px;font-style:normal;fill:#000000;stroke:none;">Y</text></g></g><g id="Group"><line x1="1887.817" y1="893.164" x2="2046.257" y2="107.538" vector-effect="non-scaling-stroke" stroke-width="8.082" stroke="rgb(255,46,46)" stroke-linejoin="miter" stroke-linecap="square" stroke-miterlimit="3"/><line x1="1887.817" y1="893.164" x2="2778" y2="360.381" vector-effect="non-scaling-stroke" stroke-width="8.082" stroke="rgb(255,46,46)" stroke-linejoin="miter" stroke-linecap="square" stroke-miterlimit="3"/><line x1="1887.817" y1="893.164" x2="2456.592" y2="24" vector-effect="non-scaling-stroke" stroke-width="8.082" stroke="rgb(255,46,46)" stroke-linejoin="miter" stroke-linecap="square" stroke-miterlimit="3"/><path d=" M 1980.009 754.489 L 1934.349 659.857 L 2239.405 683.534 L 1980.009 754.489 Z " fill="rgb(79,188,255)"/><path d=" M 2098.094 574.606 L 1994.73 360.381 L 2685.304 413.981 L 2098.094 574.606 Z " fill="rgb(79,188,255)"/><line x1="1875.817" y1="157.979" x2="1875.817" y2="970" vector-effect="non-scaling-stroke" stroke-width="16.165" stroke="rgb(0,0,0)" stroke-linejoin="miter" stroke-linecap="square" stroke-miterlimit="3"/><line x1="1814" y1="904.796" x2="2622.634" y2="904.796" vector-effect="non-scaling-stroke" stroke-width="16.165" stroke="rgb(0,0,0)" stroke-linejoin="miter" stroke-linecap="square" stroke-miterlimit="3"/><path d=" M 1858.1 170.356 L 1876.389 152.068 L 1893.534 169.213" fill="none" vector-effect="non-scaling-stroke" stroke-width="16.165" stroke="rgb(0,0,0)" stroke-linejoin="miter" stroke-linecap="square" stroke-miterlimit="3"/><path d=" M 2611.873 887.079 L 2630.162 905.368 L 2613.016 922.513" fill="none" vector-effect="non-scaling-stroke" stroke-width="16.165" stroke="rgb(0,0,0)" stroke-linejoin="miter" stroke-linecap="square" stroke-miterlimit="3"/><g transform="matrix(1.616,0,0,1.616,2613.997,856.302)"><text transform="matrix(1,0,0,1,18.825,53.442)" style="font-family:&quot;Open Sans&quot;;font-weight:700;font-size:50px;font-style:normal;fill:#000000;stroke:none;">X</text></g><g transform="matrix(1.616,0,0,1.616,1816.815,42)"><text transform="matrix(1,0,0,1,19.899,53.442)" style="font-family:&quot;Open Sans&quot;;font-weight:700;font-size:50px;font-style:normal;fill:#000000;stroke:none;">Y</text></g></g><g id="Group"><path d=" M 740.891 574.294 C 740.891 550.411 760.281 531.021 784.164 531.021 C 808.046 531.021 827.436 550.411 827.436 574.294 C 827.436 598.176 808.046 617.566 784.164 617.566 C 760.281 617.566 740.891 598.176 740.891 574.294 Z " fill="none" vector-effect="non-scaling-stroke" stroke-width="3.796" stroke="rgb(255,46,46)" stroke-linejoin="miter" stroke-linecap="square" stroke-miterlimit="3"/><path d=" M 481.646 574.294 C 481.646 407.33 617.199 271.776 784.164 271.776 C 951.128 271.776 1086.681 407.33 1086.681 574.294 C 1086.681 741.258 951.128 876.812 784.164 876.812 C 617.199 876.812 481.646 741.258 481.646 574.294 Z " fill="none" vector-effect="non-scaling-stroke" stroke-width="3.796" stroke="rgb(255,46,46)" stroke-linejoin="miter" stroke-linecap="square" stroke-miterlimit="3"/><path d=" M 397 573.163 C 397 359.482 570.482 185.999 784.164 185.999 C 997.845 185.999 1171.327 359.482 1171.327 573.163 C 1171.327 786.844 997.845 960.327 784.164 960.327 C 570.482 960.327 397 786.844 397 573.163 Z " fill="none" vector-effect="non-scaling-stroke" stroke-width="3.796" stroke="rgb(255,46,46)" stroke-linejoin="miter" stroke-linecap="square" stroke-miterlimit="3"/><g id="Group"><path d=" M 884.927 286.527 L 1086.165 331.944 L 804.343 538.147 L 884.927 286.527 Z " fill="rgb(79,188,255)"/><path d=" M 494.038 471.889 L 539.455 270.651 L 745.658 552.473 L 494.038 471.889 Z " fill="rgb(79,188,255)"/><path d=" M 679.4 862.778 L 478.162 817.361 L 759.984 611.158 L 679.4 862.778 Z " fill="rgb(79,188,255)"/><path d=" M 1070.289 677.416 L 1024.872 878.654 L 818.669 596.832 L 1070.289 677.416 Z " fill="rgb(79,188,255)"/></g><line x1="784.164" y1="154.356" x2="784.164" y2="980.377" vector-effect="non-scaling-stroke" stroke-width="16.165" stroke="rgb(0,0,0)" stroke-linejoin="miter" stroke-linecap="square" stroke-miterlimit="3"/><line x1="354" y1="574.653" x2="1198" y2="574.081" vector-effect="non-scaling-stroke" stroke-width="16.165" stroke="rgb(0,0,0)" stroke-linejoin="miter" stroke-linecap="square" stroke-miterlimit="3"/><path d=" M 764.447 159.356 L 782.735 141.068 L 799.881 158.213" fill="none" vector-effect="non-scaling-stroke" stroke-width="16.165" stroke="rgb(0,0,0)" stroke-linejoin="miter" stroke-linecap="square" stroke-miterlimit="3"/><path d=" M 1191.039 556.446 L 1209.327 574.735 L 1192.182 591.88" fill="none" vector-effect="non-scaling-stroke" stroke-width="16.165" stroke="rgb(0,0,0)" stroke-linejoin="miter" stroke-linecap="square" stroke-miterlimit="3"/><g transform="matrix(1.616,0,0,1.616,1188.162,519.047)"><text transform="matrix(1,0,0,1,18.825,53.442)" style="font-family:&quot;Open Sans&quot;;font-weight:700;font-size:50px;font-style:normal;fill:#000000;stroke:none;">X</text></g><g transform="matrix(1.616,0,0,1.616,723.162,30)"><text transform="matrix(1,0,0,1,19.899,53.442)" style="font-family:&quot;Open Sans&quot;;font-weight:700;font-size:50px;font-style:normal;fill:#000000;stroke:none;">Y</text></g></g><g id="Group"><g id="Group"><path d=" M -1276.083 -696.479 L -1066.826 -869.911 L -1078.373 -410.005 L -1276.083 -696.479 Z " fill="rgb(79,188,255)"/><path d=" M -1615.813 -954.339 L -1406.556 -1127.77 L -1418.103 -667.865 L -1615.813 -954.339 Z " fill="rgb(79,188,255)"/></g><line x1="-1675" y1="-1108.021" x2="-1675" y2="-296" vector-effect="non-scaling-stroke" stroke-width="16.165" stroke="rgb(0,0,0)" stroke-linejoin="miter" stroke-linecap="square" stroke-miterlimit="3"/><line x1="-1752" y1="-360.632" x2="-998" y2="-361.204" vector-effect="non-scaling-stroke" stroke-width="16.165" stroke="rgb(0,0,0)" stroke-linejoin="miter" stroke-linecap="square" stroke-miterlimit="3"/><path d=" M -1692.717 -1095.644 L -1674.428 -1113.932 L -1657.283 -1096.787" fill="none" vector-effect="non-scaling-stroke" stroke-width="16.165" stroke="rgb(0,0,0)" stroke-linejoin="miter" stroke-linecap="square" stroke-miterlimit="3"/><path d=" M -1009.127 -378.921 L -990.838 -360.632 L -1007.984 -343.487" fill="none" vector-effect="non-scaling-stroke" stroke-width="16.165" stroke="rgb(0,0,0)" stroke-linejoin="miter" stroke-linecap="square" stroke-miterlimit="3"/><g transform="matrix(1.616,0,0,1.616,-1002.003,-409.698)"><text transform="matrix(1,0,0,1,18.825,53.442)" style="font-family:&quot;Open Sans&quot;;font-weight:700;font-size:50px;font-style:normal;fill:#000000;stroke:none;">X</text></g><g transform="matrix(1.616,0,0,1.616,-1734.002,-1224)"><text transform="matrix(1,0,0,1,19.899,53.442)" style="font-family:&quot;Open Sans&quot;;font-weight:700;font-size:50px;font-style:normal;fill:#000000;stroke:none;">Y</text></g><line x1="-1406.346" y1="-1127.738" x2="-1066.649" y2="-868.169" vector-effect="non-scaling-stroke" stroke-width="3.366" stroke="rgb(255,46,46)" stroke-linejoin="miter" stroke-linecap="square" stroke-miterlimit="3"/><line x1="-1615.998" y1="-953.146" x2="-1274.984" y2="-695.89" vector-effect="non-scaling-stroke" stroke-width="3.366" stroke="rgb(255,46,46)" stroke-linejoin="miter" stroke-linecap="square" stroke-miterlimit="3"/><line x1="-1418.522" y1="-670.977" x2="-1077.831" y2="-409.698" vector-effect="non-scaling-stroke" stroke-width="3.366" stroke="rgb(255,46,46)" stroke-linejoin="miter" stroke-linecap="square" stroke-miterlimit="3"/></g></g></svg>